<svg height="64pt" viewBox="0 0 512 512" width="64pt" xmlns="../../external.html?link=http://www.w3.org/2000/svg">
  <path fill="#5f2ce1" d="m196.804688 315.066406c35.996093 35.988282 83.277343 53.984375 130.558593 53.984375s94.5625-17.996093 130.558594-53.984375c34.871094-34.871094 54.078125-81.230468 54.078125-130.542968 0-49.308594-19.207031-95.671876-54.078125-130.539063-71.992187-71.980469-189.128906-71.980469-261.117187 0-34.871094 34.867187-54.078126 81.230469-54.078126 130.539063 0 49.3125 19.203126 95.671874 54.078126 130.542968zm35.097656-35.09375c-25.496094-25.496094-39.539063-59.394531-39.539063-95.449218 0-36.054688 14.042969-69.949219 39.539063-95.445313 25.5-25.492187 59.398437-39.535156 95.460937-39.535156 36.058594 0 69.960938 14.042969 95.457031 39.535156 25.5 25.496094 39.542969 59.390625 39.542969 95.445313 0 36.058593-14.042969 69.953124-39.542969 95.449218-25.496093 25.492188-59.398437 39.535156-95.457031 39.535156-36.058593 0-69.960937-14.042968-95.460937-39.535156zm0 0"/>
  <path fill="#5f2ce1" d="m145.320312 298.351562c8.535157 13.585938 18.652344 26.308594 30.273438 37.929688 11.644531 11.640625 24.402344 21.769531 38.027344 30.304688l-44.746094 44.738281-68.265625-68.261719zm0 0"/>
  <path fill="#5f2ce1" d="m14.140625 429.515625 65.253906-65.242187 68.265625 68.261718-65.253906 65.242188c-9.410156 9.410156-21.769531 14.113281-34.132812 14.113281-12.359376 0-24.71875-4.707031-34.128907-14.113281-.027343-.027344-.054687-.054688-.082031-.082032-9.070312-9.105468-14.0625-21.195312-14.0625-34.050781 0-12.890625 5.023438-25.011719 14.140625-34.128906zm0 0"/>
  <path fill="#5f2ce1" d="m222.363281 184.523438c0 28.042968 10.921875 54.40625 30.75 74.234374 19.832031 19.828126 46.199219 30.75 74.25 30.75 28.046875 0 54.414063-10.921874 74.246094-30.75 19.832031-19.828124 30.753906-46.191406 30.753906-74.234374 0-28.039063-10.921875-54.402344-30.753906-74.230469s-46.199219-30.75-74.246094-30.75-54.417969 10.921875-74.25 30.75c-19.828125 19.828125-30.75 46.191406-30.75 74.230469zm50 0c0-8.28125 6.714844-15 15-15h25v-24.992188c0-8.285156 6.714844-15 15-15 8.28125 0 15 6.714844 15 15v24.992188h25c8.28125 0 15 6.71875 15 15 0 8.285156-6.71875 15-15 15h-25v24.996093c0 8.285157-6.71875 15-15 15-8.285156 0-15-6.714843-15-15v-24.996093h-25c-8.285156 0-15-6.714844-15-15zm0 0"/>
</svg>
